<svg width="540" height="540" viewBox="0 0 540 540" fill="none" xmlns="http://www.w3.org/2000/svg">
<path d="M428.67 160.872L283.67 78.0225C274.45 72.7425 263.13 72.7425 253.91 78.0225L108.91 160.872C99.56 166.212 93.79 176.152 93.79 186.922V352.103C93.79 362.872 99.56 372.812 108.91 378.152L143.51 397.922V299.513C143.51 293.993 147.99 289.513 153.51 289.513H183.51C189.03 289.513 193.51 293.993 193.51 299.513V426.492L243.79 455.222V244.513C243.79 238.993 248.27 234.513 253.79 234.513H283.79C289.31 234.513 293.79 238.993 293.79 244.513V455.222L343.79 426.652V299.513C343.79 293.993 348.27 289.513 353.79 289.513H383.79C389.31 289.513 393.79 293.993 393.79 299.513V398.082L428.67 378.152C438.02 372.812 443.79 362.872 443.79 352.103V186.922C443.79 176.152 438.02 166.212 428.67 160.872ZM378.79 238.943C375.69 240.163 372.32 240.823 368.79 240.823C365.26 240.823 361.89 240.163 358.79 238.943C348.55 234.952 341.29 224.983 341.29 213.323C341.29 212.893 341.29 212.472 341.32 212.052C341.4 210.152 340.46 208.362 338.81 207.422L288.71 178.792C287.1 177.872 285.1 177.902 283.55 178.923C279.23 181.743 274.06 183.392 268.51 183.392C262.96 183.392 257.97 181.802 253.7 179.072C252.15 178.072 250.18 178.052 248.58 178.962L198.77 207.422C197.12 208.362 196.18 210.152 196.26 212.052C196.28 212.472 196.29 212.893 196.29 213.323C196.29 224.983 189.03 234.952 178.79 238.943C175.69 240.163 172.32 240.823 168.79 240.823C165.26 240.823 161.89 240.163 158.79 238.943C148.55 234.952 141.29 224.983 141.29 213.323C141.29 198.143 153.6 185.823 168.79 185.823C174.21 185.823 179.26 187.393 183.51 190.092C185.06 191.072 187.03 191.092 188.62 190.182L238.53 161.663C240.15 160.733 241.12 158.982 241.04 157.113C241.03 156.883 241.02 156.653 241.02 156.413C240.74 142.023 251.9 129.632 266.25 128.482C282.46 127.192 296.01 139.952 296.01 155.893C296.01 156.232 296 156.572 295.99 156.902C295.93 158.732 296.91 160.443 298.5 161.363L348.96 190.182C350.55 191.092 352.52 191.072 354.07 190.092C358.95 186.992 364.87 185.392 371.18 185.922C384.12 187.012 394.69 197.283 396.12 210.182C397.55 223.173 389.94 234.603 378.79 238.943ZM469.88 137.663L284.88 31.9525C275.66 26.6825 264.34 26.6825 255.12 31.9525L70.12 137.663C60.77 143.003 55 152.942 55 163.712V375.312C55 386.082 60.77 396.022 70.12 401.362L144.72 443.992L194.72 472.562L245 501.292L255.12 507.073C264.34 512.342 275.66 512.342 284.88 507.073L295 501.292L345 472.722L395 444.153L469.88 401.362C479.23 396.022 485 386.082 485 375.312V163.712C485 152.942 479.23 143.003 469.88 137.663ZM465 363.712C465 374.482 459.23 384.423 449.88 389.763L395 421.122L295 478.263L284.88 484.042C275.66 489.312 264.34 489.312 255.12 484.042L245 478.263L194.72 449.532L144.72 420.962L90.12 389.763C80.77 384.423 75 374.482 75 363.712V175.312C75 164.542 80.77 154.602 90.12 149.262L255.12 54.9825C264.34 49.7125 275.66 49.7125 284.88 54.9825L449.88 149.262C459.23 154.602 465 164.542 465 175.312V363.712Z" fill="url(#paint0_linear_144_3)"/>
<defs>
<linearGradient id="paint0_linear_144_3" x1="397.78" y1="452.003" x2="142.22" y2="87.0225" gradientUnits="userSpaceOnUse">
<stop stop-color="#20A39E"/>
<stop offset="1" stop-color="#266CD7"/>
</linearGradient>
</defs>
</svg>
